<svg xmlns="http://www.w3.org/2000/svg" xmlns:xlink="http://www.w3.org/1999/xlink" width="163" zoomAndPan="magnify" viewBox="0 0 122.25 108.75" height="145" preserveAspectRatio="xMidYMid meet" version="1.0"><defs><clipPath id="815386ea48"><path d="M 0 1 L 36.527344 1 L 36.527344 107.550781 L 0 107.550781 Z M 0 1 " clip-rule="nonzero"/></clipPath><clipPath id="db04cd0cc3"><path d="M 29 0.207031 L 53 0.207031 L 53 64 L 29 64 Z M 29 0.207031 " clip-rule="nonzero"/></clipPath><clipPath id="8d74c5d8cc"><path d="M 35.917969 0.210938 L 52.507812 62.132812 L 46.027344 63.867188 L 29.4375 1.945312 Z M 35.917969 0.210938 " clip-rule="nonzero"/></clipPath><clipPath id="41fdd0f298"><path d="M 1 1 L 23 1 L 23 63 L 1 63 Z M 1 1 " clip-rule="nonzero"/></clipPath><clipPath id="e1fcc5e92a"><path d="M 6.917969 0.210938 L 23.507812 62.132812 L 17.027344 63.867188 L 0.4375 1.945312 Z M 6.917969 0.210938 " clip-rule="nonzero"/></clipPath><clipPath id="6c3b5e240b"><path d="M 0.527344 1.921875 L 17.117188 63.84375 L 23.597656 62.109375 L 7.007812 0.183594 Z M 0.527344 1.921875 " clip-rule="nonzero"/></clipPath><clipPath id="edcc149273"><path d="M 0.527344 1.921875 L 17.117188 63.84375 L 23.597656 62.109375 L 7.007812 0.183594 Z M 0.527344 1.921875 " clip-rule="nonzero"/></clipPath><clipPath id="cdc1411968"><rect x="0" width="24" y="0" height="64"/></clipPath><clipPath id="efe8d65a09"><path d="M 41 43 L 65 43 L 65 108 L 41 108 Z M 41 43 " clip-rule="nonzero"/></clipPath><clipPath id="4665dfd028"><path d="M 47.699219 43.753906 L 64.613281 105.589844 L 58.140625 107.359375 L 41.230469 45.523438 Z M 47.699219 43.753906 " clip-rule="nonzero"/></clipPath><clipPath id="d7555f2778"><path d="M 1 1 L 23 1 L 23 64 L 1 64 Z M 1 1 " clip-rule="nonzero"/></clipPath><clipPath id="c984334ab2"><path d="M 6.699219 0.753906 L 23.613281 62.589844 L 17.140625 64.359375 L 0.230469 2.523438 Z M 6.699219 0.753906 " clip-rule="nonzero"/></clipPath><clipPath id="5fd9c90714"><path d="M 0.320312 2.5 L 17.230469 64.335938 L 23.703125 62.566406 L 6.789062 0.730469 Z M 0.320312 2.5 " clip-rule="nonzero"/></clipPath><clipPath id="a87974a3c4"><path d="M 0.320312 2.5 L 17.230469 64.335938 L 23.703125 62.566406 L 6.789062 0.730469 Z M 0.320312 2.5 " clip-rule="nonzero"/></clipPath><clipPath id="86c0517011"><rect x="0" width="24" y="0" height="65"/></clipPath><clipPath id="bc06a4ef04"><path d="M 84.710938 0.5625 L 121.238281 0.5625 L 121.238281 107 L 84.710938 107 Z M 84.710938 0.5625 " clip-rule="nonzero"/></clipPath><clipPath id="fb5c54f755"><path d="M 0.839844 0.5625 L 37.238281 0.5625 L 37.238281 106.832031 L 0.839844 106.832031 Z M 0.839844 0.5625 " clip-rule="nonzero"/></clipPath><clipPath id="6796798e17"><rect x="0" width="38" y="0" height="107"/></clipPath><clipPath id="e3fa8e9f8e"><path d="M 68 0.207031 L 92 0.207031 L 92 64 L 68 64 Z M 68 0.207031 " clip-rule="nonzero"/></clipPath><clipPath id="f647b63f25"><path d="M 68.464844 61.867188 L 85.480469 0.0625 L 91.949219 1.839844 L 74.933594 63.648438 Z M 68.464844 61.867188 " clip-rule="nonzero"/></clipPath><clipPath id="347fc8845e"><path d="M 1 0.207031 L 24 0.207031 L 24 63 L 1 63 Z M 1 0.207031 " clip-rule="nonzero"/></clipPath><clipPath id="3f4278fbf8"><path d="M 0.464844 61.867188 L 17.480469 0.0625 L 23.949219 1.839844 L 6.933594 63.648438 Z M 0.464844 61.867188 " clip-rule="nonzero"/></clipPath><clipPath id="21c980e45d"><path d="M 6.84375 63.625 L 23.859375 1.816406 L 17.390625 0.0351562 L 0.375 61.84375 Z M 6.84375 63.625 " clip-rule="nonzero"/></clipPath><clipPath id="7e6cc85197"><path d="M 6.84375 63.625 L 23.859375 1.816406 L 17.390625 0.0351562 L 0.375 61.84375 Z M 6.84375 63.625 " clip-rule="nonzero"/></clipPath><clipPath id="93c70bb08b"><rect x="0" width="24" y="0" height="64"/></clipPath><clipPath id="a9c623b48c"><path d="M 56 43 L 81 43 L 81 108 L 56 108 Z M 56 43 " clip-rule="nonzero"/></clipPath><clipPath id="e319d83cea"><path d="M 56.578125 105.234375 L 73.59375 43.429688 L 80.058594 45.210938 L 63.046875 107.015625 Z M 56.578125 105.234375 " clip-rule="nonzero"/></clipPath><clipPath id="168b31cfc8"><path d="M 1 1 L 24 1 L 24 64 L 1 64 Z M 1 1 " clip-rule="nonzero"/></clipPath><clipPath id="771e950274"><path d="M 0.578125 62.234375 L 17.59375 0.429688 L 24.058594 2.210938 L 7.046875 64.015625 Z M 0.578125 62.234375 " clip-rule="nonzero"/></clipPath><clipPath id="b7ed8be50c"><path d="M 6.957031 63.992188 L 23.96875 2.183594 L 17.503906 0.402344 L 0.488281 62.210938 Z M 6.957031 63.992188 " clip-rule="nonzero"/></clipPath><clipPath id="b6a4d24348"><path d="M 6.957031 63.992188 L 23.96875 2.183594 L 17.503906 0.402344 L 0.488281 62.210938 Z M 6.957031 63.992188 " clip-rule="nonzero"/></clipPath><clipPath id="037eccfbff"><rect x="0" width="25" y="0" height="65"/></clipPath></defs><g clip-path="url(#815386ea48)"><path fill="#000000" d="M 36.636719 4.527344 C 36.636719 5.6875 36.050781 6.769531 35.078125 7.398438 C 28.09375 11.914062 22.773438 15.535156 21.242188 19.390625 C 20.25 21.894531 20.761719 24.886719 21.609375 29.007812 C 21.933594 30.566406 22.292969 32.304688 22.46875 33.996094 C 23.09375 39.996094 21.398438 45.253906 17.71875 49.167969 C 14.226562 52.875 9.097656 55.121094 4.839844 57.03125 L 4.683594 50.734375 C 9.695312 52.6875 16.453125 55.15625 19.652344 60.785156 C 22.773438 66.28125 22.097656 74.03125 21.398438 78.832031 C 21.296875 79.539062 21.1875 80.214844 21.089844 80.828125 C 20.996094 81.402344 20.910156 81.925781 20.839844 82.421875 C 20.4375 85.179688 20.484375 86.675781 21.609375 88.539062 C 23.597656 91.824219 28.722656 96.078125 34.691406 100.960938 C 36.152344 102.152344 36.371094 104.304688 35.175781 105.765625 C 33.984375 107.226562 31.832031 107.441406 30.371094 106.25 C 24.867188 101.75 18.519531 96.628906 15.761719 92.070312 C 13.410156 88.183594 13.597656 84.753906 14.078125 81.4375 C 14.160156 80.878906 14.253906 80.304688 14.34375 79.738281 C 14.445312 79.121094 14.546875 78.496094 14.640625 77.847656 C 15.363281 72.875 15.542969 67.378906 13.710938 64.160156 C 11.957031 61.070312 7.953125 59.339844 2.203125 57.097656 C 0.917969 56.597656 0.0625 55.378906 0.0273438 54.003906 C -0.0078125 52.628906 0.789062 51.363281 2.042969 50.800781 C 6.644531 48.734375 10.371094 47.007812 12.746094 44.484375 C 14.929688 42.164062 16.113281 38.933594 15.675781 34.703125 C 15.539062 33.410156 15.257812 32.019531 14.921875 30.386719 C 14.171875 26.75 13.011719 21.617188 14.894531 16.871094 C 17.421875 10.5 25.230469 5.632812 31.367188 1.660156 L 29.808594 4.527344 C 29.808594 2.644531 31.335938 1.113281 33.222656 1.113281 C 35.109375 1.113281 36.636719 2.644531 36.636719 4.527344 Z M 36.636719 4.527344 " fill-opacity="1" fill-rule="nonzero"/></g><g clip-path="url(#db04cd0cc3)"><g clip-path="url(#8d74c5d8cc)"><g transform="matrix(1, 0, 0, 1, 29, -0.000000000000015266)"><g clip-path="url(#cdc1411968)"><g clip-path="url(#41fdd0f298)"><g clip-path="url(#e1fcc5e92a)"><g clip-path="url(#6c3b5e240b)"><g clip-path="url(#edcc149273)"><path fill="#000000" d="M 1.417969 5.265625 C 1.296875 4.835938 1.261719 4.402344 1.320312 3.960938 C 1.375 3.519531 1.511719 3.105469 1.734375 2.714844 C 1.957031 2.328125 2.246094 1.996094 2.601562 1.726562 C 2.957031 1.453125 3.351562 1.257812 3.785156 1.140625 C 4.21875 1.023438 4.65625 0.996094 5.101562 1.054688 C 5.546875 1.113281 5.960938 1.253906 6.347656 1.480469 C 6.734375 1.703125 7.0625 1.996094 7.332031 2.351562 C 7.597656 2.707031 7.789062 3.097656 7.894531 3.53125 L 22.691406 58.75 C 22.8125 59.179688 22.84375 59.613281 22.789062 60.054688 C 22.734375 60.496094 22.597656 60.914062 22.375 61.300781 C 22.152344 61.6875 21.863281 62.019531 21.507812 62.289062 C 21.152344 62.5625 20.757812 62.757812 20.324219 62.875 C 19.890625 62.992188 19.453125 63.019531 19.007812 62.960938 C 18.5625 62.902344 18.148438 62.761719 17.761719 62.535156 C 17.375 62.3125 17.046875 62.023438 16.777344 61.667969 C 16.511719 61.3125 16.320312 60.917969 16.210938 60.484375 Z M 1.417969 5.265625 " fill-opacity="1" fill-rule="nonzero"/></g></g></g></g></g></g></g></g><g clip-path="url(#efe8d65a09)"><g clip-path="url(#4665dfd028)"><g transform="matrix(1, 0, 0, 1, 41, 43)"><g clip-path="url(#86c0517011)"><g clip-path="url(#d7555f2778)"><g clip-path="url(#c984334ab2)"><g clip-path="url(#5fd9c90714)"><g clip-path="url(#a87974a3c4)"><path fill="#000000" d="M 1.226562 5.839844 C 1.105469 5.410156 1.066406 4.976562 1.121094 4.535156 C 1.171875 4.09375 1.308594 3.675781 1.53125 3.289062 C 1.75 2.898438 2.039062 2.566406 2.390625 2.292969 C 2.746094 2.015625 3.140625 1.820312 3.574219 1.703125 C 4.003906 1.585938 4.445312 1.554688 4.890625 1.609375 C 5.332031 1.664062 5.75 1.804688 6.136719 2.027344 C 6.523438 2.25 6.855469 2.539062 7.125 2.894531 C 7.394531 3.246094 7.585938 3.640625 7.695312 4.070312 L 22.777344 59.210938 C 22.898438 59.640625 22.9375 60.074219 22.882812 60.515625 C 22.832031 60.960938 22.695312 61.375 22.472656 61.765625 C 22.253906 62.152344 21.964844 62.484375 21.613281 62.757812 C 21.257812 63.035156 20.863281 63.230469 20.429688 63.347656 C 20 63.46875 19.558594 63.5 19.113281 63.441406 C 18.671875 63.386719 18.253906 63.246094 17.867188 63.023438 C 17.480469 62.800781 17.148438 62.511719 16.878906 62.160156 C 16.609375 61.804688 16.417969 61.414062 16.308594 60.980469 Z M 1.226562 5.839844 " fill-opacity="1" fill-rule="nonzero"/></g></g></g></g></g></g></g></g><g clip-path="url(#bc06a4ef04)"><g transform="matrix(1, 0, 0, 1, 84, -0.000000000000015266)"><g clip-path="url(#6796798e17)"><g clip-path="url(#fb5c54f755)"><path fill="#000000" d="M 0.726562 4.132812 C 0.726562 5.292969 1.316406 6.375 2.289062 7.003906 C 9.273438 11.519531 14.59375 15.140625 16.121094 19 C 17.117188 21.5 16.605469 24.492188 15.753906 28.613281 C 15.433594 30.171875 15.070312 31.910156 14.894531 33.601562 C 14.273438 39.601562 15.964844 44.859375 19.648438 48.773438 C 23.140625 52.480469 28.269531 54.726562 32.523438 56.636719 L 32.683594 50.339844 C 27.671875 52.292969 20.914062 54.761719 17.714844 60.390625 C 14.589844 65.886719 15.269531 73.636719 15.964844 78.4375 C 16.070312 79.144531 16.179688 79.820312 16.277344 80.433594 C 16.371094 81.007812 16.453125 81.53125 16.527344 82.027344 C 16.925781 84.785156 16.882812 86.28125 15.757812 88.144531 C 13.769531 91.429688 8.644531 95.683594 2.671875 100.566406 C 1.210938 101.757812 0.996094 103.910156 2.1875 105.371094 C 3.382812 106.832031 5.535156 107.046875 6.996094 105.855469 C 12.5 101.355469 18.847656 96.234375 21.601562 91.675781 C 23.953125 87.789062 23.769531 84.359375 23.285156 81.042969 C 23.203125 80.484375 23.113281 79.910156 23.019531 79.34375 C 22.921875 78.726562 22.820312 78.101562 22.726562 77.453125 C 22.003906 72.480469 21.824219 66.984375 23.652344 63.765625 C 25.410156 60.675781 29.414062 58.945312 35.164062 56.703125 C 36.445312 56.207031 37.304688 54.984375 37.339844 53.609375 C 37.371094 52.234375 36.578125 50.96875 35.324219 50.40625 C 30.722656 48.339844 26.996094 46.613281 24.621094 44.089844 C 22.433594 41.769531 21.25 38.539062 21.691406 34.308594 C 21.824219 33.015625 22.109375 31.625 22.445312 29.992188 C 23.195312 26.355469 24.355469 21.222656 22.472656 16.476562 C 19.941406 10.105469 12.136719 5.238281 5.996094 1.265625 L 7.558594 4.132812 C 7.558594 2.25 6.027344 0.71875 4.144531 0.71875 C 2.257812 0.71875 0.726562 2.25 0.726562 4.132812 Z M 0.726562 4.132812 " fill-opacity="1" fill-rule="nonzero"/></g></g></g></g><g clip-path="url(#e3fa8e9f8e)"><g clip-path="url(#f647b63f25)"><g transform="matrix(1, 0, 0, 1, 68, -0.000000000000015266)"><g clip-path="url(#93c70bb08b)"><g clip-path="url(#347fc8845e)"><g clip-path="url(#3f4278fbf8)"><g clip-path="url(#21c980e45d)"><g clip-path="url(#7e6cc85197)"><path fill="#000000" d="M 7.765625 60.289062 C 7.65625 60.71875 7.464844 61.113281 7.191406 61.464844 C 6.921875 61.820312 6.59375 62.105469 6.203125 62.328125 C 5.816406 62.550781 5.402344 62.6875 4.957031 62.746094 C 4.511719 62.800781 4.070312 62.769531 3.640625 62.648438 C 3.207031 62.53125 2.8125 62.332031 2.460938 62.058594 C 2.105469 61.78125 1.820312 61.449219 1.601562 61.0625 C 1.378906 60.671875 1.246094 60.257812 1.191406 59.8125 C 1.140625 59.371094 1.175781 58.9375 1.300781 58.507812 L 16.472656 3.390625 C 16.585938 2.960938 16.777344 2.570312 17.046875 2.214844 C 17.320312 1.863281 17.648438 1.574219 18.035156 1.351562 C 18.425781 1.128906 18.839844 0.992188 19.285156 0.9375 C 19.730469 0.878906 20.167969 0.914062 20.601562 1.03125 C 21.035156 1.148438 21.429688 1.347656 21.78125 1.625 C 22.136719 1.898438 22.421875 2.230469 22.640625 2.621094 C 22.863281 3.007812 22.996094 3.425781 23.050781 3.867188 C 23.101562 4.308594 23.066406 4.746094 22.941406 5.171875 Z M 7.765625 60.289062 " fill-opacity="1" fill-rule="nonzero"/></g></g></g></g></g></g></g></g><g clip-path="url(#a9c623b48c)"><g clip-path="url(#e319d83cea)"><g transform="matrix(1, 0, 0, 1, 56, 43)"><g clip-path="url(#037eccfbff)"><g clip-path="url(#168b31cfc8)"><g clip-path="url(#771e950274)"><g clip-path="url(#b7ed8be50c)"><g clip-path="url(#b6a4d24348)"><path fill="#000000" d="M 7.878906 60.65625 C 7.765625 61.085938 7.574219 61.480469 7.304688 61.832031 C 7.035156 62.1875 6.703125 62.472656 6.316406 62.695312 C 5.929688 62.917969 5.511719 63.058594 5.066406 63.113281 C 4.621094 63.167969 4.183594 63.136719 3.75 63.015625 C 3.320312 62.898438 2.925781 62.699219 2.570312 62.425781 C 2.21875 62.148438 1.929688 61.816406 1.710938 61.429688 C 1.492188 61.039062 1.355469 60.625 1.304688 60.179688 C 1.253906 59.738281 1.289062 59.304688 1.414062 58.875 L 16.585938 3.757812 C 16.699219 3.328125 16.890625 2.9375 17.160156 2.582031 C 17.429688 2.230469 17.761719 1.941406 18.148438 1.71875 C 18.535156 1.5 18.953125 1.359375 19.398438 1.304688 C 19.84375 1.25 20.28125 1.28125 20.714844 1.398438 C 21.148438 1.519531 21.539062 1.714844 21.894531 1.992188 C 22.246094 2.265625 22.535156 2.597656 22.753906 2.988281 C 22.972656 3.375 23.109375 3.792969 23.160156 4.234375 C 23.214844 4.675781 23.175781 5.113281 23.050781 5.539062 Z M 7.878906 60.65625 " fill-opacity="1" fill-rule="nonzero"/></g></g></g></g></g></g></g></g></svg>